<svg baseProfile="basic" xmlns="http://www.w3.org/2000/svg" xmlns:xlink="http://www.w3.org/1999/xlink" viewBox="0 0 1350 750">
	<style>
		#react1, #react2, #react3, #react4, #react6, #react5 {
			opacity: 0;
		}

		#react1.active, #react2.active, #react3.active, #react4.active, #react6.active, #react5.active {
			opacity: 1;
		}
	</style>

	<symbol id="bandeira" viewBox="-10.1 -14.1 28.3 28.3"><path fill="#24D9FD" d="M18.2.1c0-7.9-6.2-14.2-14.1-14.2-7.9 0-14.3 6.3-14.3 14.2 0 7.8 6.3 14.1 14.2 14.1 7.9 0 14.2-6.3 14.2-14.1z"/><path fill="#FFF" d="M14.5.1c0-.3-.2-.4-.4-.5-3.2-2.7-6.4-5.3-9.6-8-.4-.3-.6-.3-1 0C.4-5.8-2.8-3.1-6-.5c-.5.4-.4.6 0 1C-2.8 3.1.3 5.7 3.4 8.4c.5.4.7.3 1.2 0C7.7 5.8 10.9 3.2 14 .5c.2-.1.4-.3.5-.4z"/><path fill="#282828" d="M4 5.3C7 5.3 9.3 3 9.4 0 9.4-3 7-5.4 4-5.3 1.1-5.3-1.3-2.9-1.3 0c0 3 2.4 5.3 5.3 5.3z"/></symbol>

	<symbol id="react_text" viewBox="-217.8 -68.6 435.6 137.2"><path fill="#282828" d="M-208.3 10.7h-7.7c-1.3 0-1.9.6-1.9 1.9v54.1c0 1.3.6 1.9 1.9 1.9h21.4c4.7 0 8.3-1.3 11-3.9 2.6-2.6 4-6.2 4-10.9v-7c0-6.8-2.7-11.3-8-13.5v-.4l9.6-20.1c.5-1.4 0-2.2-1.5-2.2h-7.3c-1.1 0-1.9.1-2.3.4-.5.2-.9.7-1.2 1.5l-9 19.4h-6c-.7 0-1.1-.3-1.1-1V12.6c0-1.3-.6-1.9-1.9-1.9zm2.9 30.5h8.8c1.9 0 3.3.4 4.2 1.2.9.8 1.3 2.1 1.3 3.9v7c0 1.9-.4 3.2-1.3 4-.9.8-2.3 1.3-4.2 1.3h-8.8c-.7 0-1-.3-1-1V42.2c0-.6.4-1 1-1zM-134.6 10.7H-164c-1.3 0-1.9.6-1.9 1.9v54.1c0 1.3.6 1.9 1.9 1.9h29.4c1.2 0 1.8-.6 1.8-1.9v-6.1c0-1.3-.6-1.9-1.8-1.9h-18.8c-.7 0-1.1-.3-1.1-1V46c0-.7.4-1 1.1-1h15.4c1.3 0 1.9-.6 1.9-1.9V37c0-1.3-.6-1.9-1.9-1.9h-15.4c-.7 0-1.1-.3-1.1-1V21.6c0-.7.4-1 1.1-1h18.8c1.2 0 1.8-.6 1.8-1.9v-6.1c0-1.3-.6-1.9-1.8-1.9zM-112.4 10.7h-8.6c-1.1 0-1.4.6-1.1 1.9l14.2 54.1c.4 1.3 1.3 1.9 2.7 1.9h12c1.5 0 2.4-.6 2.7-1.9l14.2-54.1c.4-1.3 0-1.9-1.1-1.9H-86c-.7 0-1.1.1-1.4.4-.2.3-.4.8-.5 1.5l-2.5 9.9H-108l-2.5-9.9c-.1-.7-.3-1.2-.6-1.5-.3-.3-.7-.4-1.3-.4zm13 47l-6.5-26h13.3l-6.5 26h-.3zM-41.9 10.7h-9.8c-4.7 0-8.4 1.3-11 3.8-2.6 2.5-3.9 6.1-3.9 10.9v28.5c0 4.7 1.3 8.4 3.9 10.9 2.6 2.5 6.2 3.8 11 3.8h9.8c4.7 0 8.3-1.3 10.9-3.8 2.6-2.6 3.9-6.2 3.9-10.8v-4.2c0-1.3-.7-2-2-2h-7.6c-1.3 0-1.9.7-1.9 2v3.7c0 1.9-.4 3.3-1.2 4.1-.8.8-2.2 1.2-4.1 1.2H-50c-1.9 0-3.2-.4-4-1.2-.8-.8-1.2-2.2-1.2-4.1V25.9c0-1.9.4-3.3 1.2-4.1.8-.8 2.1-1.2 4-1.2h6.1c1.9 0 3.3.4 4.1 1.2.8.8 1.2 2.2 1.2 4.1v3.7c0 1.3.6 2 1.9 2h7.6c1.3 0 2-.7 2-2v-4.2c0-4.7-1.3-8.3-3.9-10.8-2.6-2.6-6.2-3.9-10.9-3.9zM5.3 10.7h-7.6c-1.3 0-2 .6-2 1.9v45.1c0 .7-.3 1-1 1h-10.3c-1.3 0-1.9.6-1.9 1.9v6.1c0 1.3.6 1.9 1.9 1.9h34c1.3 0 1.9-.6 1.9-1.9v-6.1c0-1.3-.6-1.9-1.9-1.9H8.3c-.7 0-1.1-.3-1.1-1V12.6c0-1.3-.6-1.9-1.9-1.9z"/><g><path fill="#00D8FF" d="M58.7 10.7h-9.8c-4.7 0-8.4 1.3-11 3.8C35.3 17 34 20.6 34 25.4v28.5c0 4.7 1.3 8.4 3.9 10.9 2.6 2.5 6.2 3.8 11 3.8h9.8c4.7 0 8.3-1.3 10.9-3.8 2.6-2.6 3.9-6.2 3.9-10.8v-4.2c0-1.3-.7-2-2-2H64c-1.3 0-1.9.7-1.9 2v3.7c0 1.9-.4 3.3-1.2 4.1s-2.2 1.2-4.1 1.2h-6.1c-1.9 0-3.2-.4-4-1.2-.8-.8-1.2-2.2-1.2-4.1V25.9c0-1.9.4-3.3 1.2-4.1.8-.8 2.1-1.2 4-1.2h6.1c1.9 0 3.3.4 4.1 1.2.8.8 1.2 2.2 1.2 4.1v3.7c0 1.3.6 2 1.9 2h7.6c1.3 0 2-.7 2-2v-4.2c0-4.7-1.3-8.3-3.9-10.8-2.7-2.6-6.3-3.9-11-3.9zM108 10.7H97.9c-4.7 0-8.4 1.3-11 3.8C84.3 17 83 20.6 83 25.4v28.5c0 4.7 1.3 8.4 3.9 10.9 2.6 2.5 6.2 3.8 11 3.8H108c4.7 0 8.4-1.3 11-3.8 2.6-2.5 3.9-6.2 3.9-10.9V25.4c0-4.7-1.3-8.4-3.9-10.9-2.6-2.5-6.3-3.8-11-3.8zm-8.3 9.9h6.4c1.9 0 3.3.4 4.1 1.2.8.8 1.2 2.2 1.2 4.1v27.5c0 1.9-.4 3.3-1.2 4.1s-2.2 1.2-4.1 1.2h-6.4c-1.9 0-3.3-.4-4.1-1.2-.8-.8-1.2-2.2-1.2-4.1V25.9c0-1.9.4-3.3 1.2-4.1.8-.8 2.2-1.2 4.1-1.2zM142.7 10.7h-7.5c-1.3 0-1.9.6-1.9 1.9v54.1c0 1.3.6 1.9 1.9 1.9h6.8c1.3 0 2.1-.4 2.5-1.3l18.2-34.1h.4v33.5c0 1.3.6 1.9 1.9 1.9h7.5c1.3 0 1.9-.6 1.9-1.9V12.6c0-1.3-.6-1.9-1.9-1.9h-6.6c-1.3 0-2.3.6-2.9 1.8L145 46h-.4V12.6c0-1.3-.7-1.9-1.9-1.9zM194.9 10.7h-7.6c-1.3 0-1.9.6-1.9 1.9v54.1c0 1.3.6 1.9 1.9 1.9H216c1.2 0 1.8-.6 1.8-1.9v-6.1c0-1.3-.6-1.9-1.8-1.9h-18.1c-.7 0-1.1-.3-1.1-1v-14c0-.7.4-1.1 1.1-1.1h15.4c1.3 0 1.9-.6 1.9-1.9v-6c0-1.3-.6-2-1.9-2h-15.4c-.7 0-1.1-.3-1.1-1V12.6c0-1.3-.6-1.9-1.9-1.9z"/></g><g><path fill="#00D8FF" d="M-171-24h-46.8v4h46.8z"/></g><g><path fill="#00D8FF" d="M-217.6-67.9V-49c0 .4.2.7.7.7h7.6c1.7 0 2.9-.4 3.8-1.3.9-.9 1.4-2.1 1.4-3.8v-1.3c0-1.8-.8-2.9-2.5-3.5.8-.1 1.5-.5 2-1s.8-1.3.8-2.4v-1.9c0-1.6-.5-2.9-1.4-3.8-.9-.9-2.2-1.3-3.8-1.3h-7.9c-.5 0-.7.2-.7.7zm4.3 11.3h3.2c.7 0 1.2.1 1.5.4.3.3.5.8.5 1.4v1.2c0 .7-.2 1.1-.5 1.4-.3.3-.8.4-1.5.4h-3.2c-.2 0-.3-.1-.3-.3v-4.2c0-.1.1-.3.3-.3zm0-8.6h3.5c.7 0 1.2.1 1.5.4.3.3.5.8.5 1.4v1.8c0 .7-.2 1.1-.5 1.4-.3.3-.8.4-1.5.4h-3.5c-.2 0-.3-.1-.3-.3v-4.8c0-.2.1-.3.3-.3zM-196.8-68.6h-2.7c-.4 0-.7.2-.7.7V-49c0 .4.2.7.7.7h7.5c1.6 0 2.9-.5 3.8-1.4.9-.9 1.4-2.2 1.4-3.8V-56c0-2.4-.9-3.9-2.8-4.7v-.1l3.4-7c.2-.5 0-.8-.5-.8h-2.6c-.4 0-.7 0-.8.1s-.3.3-.4.5l-3.2 6.8h-2.1c-.3 0-.4-.1-.4-.3V-68c0-.4-.2-.6-.6-.6zm1 10.7h3.1c.7 0 1.2.1 1.5.4.3.3.5.7.5 1.4v2.5c0 .7-.2 1.1-.5 1.4-.3.3-.8.4-1.5.4h-3.1c-.2 0-.3-.1-.3-.3v-5.4c-.1-.3 0-.4.3-.4zM-179.9-68.6h-3c-.4 0-.5.2-.4.7l5 18.9c.1.4.5.7.9.7h4.2c.5 0 .8-.2.9-.7l5-18.9c.1-.4 0-.7-.4-.7h-3c-.2 0-.4 0-.5.1-.1.1-.1.3-.2.5l-.9 3.5h-6.1l-.9-3.5c0-.3-.1-.4-.2-.5 0 0-.2-.1-.4-.1zm4.6 16.5l-2.3-9.1h4.7l-2.3 9.1h-.1zM-164.7-63.4v.6c0 .4.2.7.7.7h2.7c.4 0 .7-.2.7-.7v-.2c0-.8.2-1.3.5-1.6.3-.3.9-.4 1.7-.4h1.5c.8 0 1.4.2 1.7.5.3.3.5.9.5 1.8v.4c0 .6-.2 1.1-.7 1.4-.5.3-1.1.5-1.8.6-.7.1-1.5.2-2.4.4-.9.2-1.6.4-2.4.7-.7.3-1.3.8-1.8 1.7-.5.8-.7 1.9-.7 3.2v1.1c0 1.6.5 2.9 1.4 3.8.9.9 2.2 1.4 3.8 1.4h3.1c1.7 0 3-.5 3.9-1.4.9-.9 1.4-2.2 1.4-3.8v-.6c0-.4-.2-.7-.7-.7h-2.7c-.4 0-.7.2-.7.7v.2c0 .8-.2 1.4-.5 1.7-.3.3-.9.4-1.7.4h-1.2c-.9 0-1.4-.2-1.7-.5-.3-.3-.5-1-.5-1.9v-.6c0-1 .9-1.6 2.6-1.7 1.8-.1 3.4-.5 4.8-1.1.7-.3 1.3-.9 1.8-1.7s.7-1.8.7-3.1v-1.1c0-1.6-.5-2.9-1.4-3.8s-2.2-1.4-3.8-1.4h-3.4c-1.6 0-2.9.5-3.8 1.4-1.1.7-1.6 1.9-1.6 3.6zM-143.1-49v-18.9c0-.4-.2-.7-.7-.7h-2.7c-.4 0-.7.2-.7.7V-49c0 .4.2.7.7.7h2.7c.5 0 .7-.3.7-.7zM-127.9-68.6h-10.4c-.4 0-.7.2-.7.7V-49c0 .4.2.7.7.7h2.7c.4 0 .7-.2.7-.7v-15.8c0-.2.1-.3.4-.3h6.6c.4 0 .6-.2.6-.7v-2.1c0-.5-.2-.7-.6-.7zM-117.8-67.9v3c0 1.2.5 2.2 1.5 3.1l5.8 4.9c.9.8 1.4 1.6 1.4 2.5v.9c0 .7-.2 1.1-.5 1.4-.3.3-.8.4-1.5.4h-1.1c-.7 0-1.1-.1-1.4-.4-.3-.3-.4-.8-.4-1.4v-1c0-.5-.2-.7-.7-.7h-2.7c-.4 0-.7.2-.7.7v1.1c0 1.6.5 2.9 1.4 3.8.9.9 2.2 1.3 3.8 1.3h2.4c1.7 0 2.9-.4 3.8-1.3.9-.9 1.4-2.1 1.4-3.8v-1.3c0-1.6-.6-3-1.9-4.1l-5.9-5c-.3-.2-.4-.5-.4-.8v-.5h7.5c.4 0 .7-.2.7-.7V-68c0-.4-.2-.7-.7-.7h-11.3c-.3.1-.5.3-.5.8zM-93.4-68.6h-3.1c-1.7 0-2.9.4-3.8 1.3-.9.9-1.4 2.2-1.4 3.8v10c0 1.7.5 2.9 1.4 3.8.9.9 2.2 1.3 3.8 1.3h3.1c1.6 0 2.9-.4 3.8-1.3.9-.9 1.4-2.2 1.4-3.8v-10c0-1.6-.5-2.9-1.4-3.8-.9-.8-2.2-1.3-3.8-1.3zm-2.5 3.5h1.9c.7 0 1.1.1 1.4.4.3.3.4.8.4 1.4v9.6c0 .7-.1 1.1-.4 1.4-.3.3-.7.4-1.4.4h-1.9c-.7 0-1.1-.1-1.4-.4-.3-.3-.4-.8-.4-1.4v-9.6c0-.7.1-1.2.4-1.4.2-.3.7-.4 1.4-.4zM-85.2-54v2.6c0 .4.2.6.5.8l2.9 1.8c.5.3.9.4 1.2.4h2.5c.4 0 .7-.2.7-.7V-68c0-.3 0-.4-.1-.5-.1-.1-.3-.1-.5-.1h-2.7c-.4 0-.7.2-.7.7v15.3l-3.1-1.8c-.5-.1-.7 0-.7.4zM-69.5-68.6h-3c-.2 0-.3.1-.4.2-.1.1-.1.3 0 .5l6.6 15.9h-7.4c-.4 0-.7.2-.7.7v2.3c0 .4.2.7.7.7h11c.4 0 .7-.2.7-.7v-2.6c0-.4-.1-1-.4-1.7L-68.5-68c-.1-.4-.5-.6-1-.6z"/></g></symbol>
	
	<g id="react1" class="icon active">
		<path fill="#282828" d="M428.4 337.6c29.9 0 57.9 4.5 78.8 12.7 18 7.1 28.8 16.3 28.8 24.6s-10.8 17.6-28.8 24.6c-20.9 8.2-48.9 12.7-78.8 12.7s-57.9-4.5-78.8-12.7c-18-7.1-28.8-16.3-28.8-24.6s10.8-17.6 28.8-24.6c20.9-8.1 48.9-12.7 78.8-12.7m0-8c-63.8 0-115.6 20.3-115.6 45.4s51.7 45.4 115.6 45.4S544 400.1 544 375s-51.8-45.4-115.6-45.4z"/><path fill="#282828" d="M467.7 352.3c31.9 55.3 40.2 110.2 18.5 122.8-21.7 12.5-65.2-22.1-97.1-77.4"/><path fill="#00D8FF" d="M476 280.4c2.4 0 4.4.5 6.1 1.5 7.2 4.2 9.8 18.1 6.9 37.2-3.3 22.2-13.4 48.7-28.4 74.6-28.5 49.3-62.5 76-80 76-2.4 0-4.4-.5-6.1-1.5-7.2-4.2-9.8-18.1-6.9-37.2 3.3-22.2 13.4-48.7 28.4-74.6 28.5-49.4 62.5-76 80-76m0-8c-23.3 0-59.4 32.3-86.9 80-31.9 55.3-40.2 110.2-18.5 122.8 3 1.7 6.4 2.6 10.1 2.6 23.3 0 59.4-32.3 86.9-80 31.9-55.3 40.2-110.2 18.5-122.8-2.9-1.8-6.4-2.6-10.1-2.6z"/><path fill="#FFF" d="M487.3 350.5c-3.4 0-6.5-1.8-8.2-4.8-2.6-4.5-1.1-10.4 3.5-13 1.4-.8 3.1-1.3 4.7-1.3 3.4 0 6.5 1.8 8.2 4.8 1.3 2.2 1.6 4.8.9 7.2-.7 2.5-2.2 4.5-4.4 5.8-1.4.8-3.1 1.3-4.7 1.3z"/><path fill="#00D8FF" d="M487.3 335c2.1 0 4.1 1.1 5.2 3 1.7 2.9.7 6.5-2.2 8.2-.9.5-2 .8-3 .8-2.1 0-4.1-1.1-5.2-3-1.7-2.9-.7-6.5 2.2-8.2.9-.6 2-.8 3-.8m0-7c-2.3 0-4.5.6-6.5 1.7-3 1.7-5.2 4.5-6.1 7.9-.9 3.4-.4 6.9 1.3 9.9 2.3 4 6.6 6.5 11.3 6.5 2.3 0 4.5-.6 6.5-1.7 3-1.7 5.2-4.5 6.1-7.9.9-3.4.4-6.9-1.3-9.9-2.4-4-6.7-6.5-11.3-6.5z"/><path fill="#FFF" d="M369.4 418.5c-3.4 0-6.5-1.8-8.2-4.8-1.3-2.2-1.6-4.8-.9-7.2.7-2.5 2.2-4.5 4.4-5.8 1.4-.8 3.1-1.3 4.7-1.3 3.4 0 6.5 1.8 8.2 4.7 2.6 4.5 1.1 10.4-3.5 13-1.4 1-3 1.4-4.7 1.4z"/><path fill="#00D8FF" d="M369.4 403c2.1 0 4.1 1.1 5.2 3 1.7 2.9.7 6.5-2.2 8.2-.9.5-2 .8-3 .8-2.1 0-4.1-1.1-5.2-3-1.7-2.9-.7-6.5 2.2-8.2 1-.5 2-.8 3-.8m0-7c-2.3 0-4.5.6-6.5 1.7-3 1.7-5.2 4.5-6.1 7.9-.9 3.4-.4 6.9 1.3 9.9 2.3 4 6.6 6.5 11.3 6.5 2.3 0 4.5-.6 6.5-1.7 3-1.7 5.2-4.5 6.1-7.9.9-3.4.4-6.9-1.3-9.9-2.3-4-6.6-6.5-11.3-6.5z"/><path fill="#282828" d="M467.7 352.3c-31.9-55.3-75.4-89.9-97.1-77.4-21.7 12.5-13.4 67.5 18.5 122.8l55.7 5.8 22.9-51.2z"/><path fill="#00D8FF" d="M433.5 355.7c10.7 2.9 17 13.8 14.1 24.5-2.9 10.7-13.8 17-24.5 14.1-10.7-2.9-17-13.8-14.1-24.5 2.9-10.6 13.9-17 24.5-14.1z"/>
	</g>

	<g id="react2" class="icon">
		<ellipse fill="#00D8FF" cx="428.4" cy="375" rx="115.6" ry="45.4"/><path fill="#00D8FF" d="M476 280.4c2.4 0 4.4.5 6.1 1.5 7.2 4.2 9.8 18.1 6.9 37.2-3.3 22.2-13.4 48.7-28.4 74.6-28.5 49.3-62.5 76-80 76-2.4 0-4.4-.5-6.1-1.5-7.2-4.2-9.8-18.1-6.9-37.2 3.3-22.2 13.4-48.7 28.4-74.6 28.5-49.4 62.5-76 80-76m0-8c-23.3 0-59.4 32.3-86.9 80-31.9 55.3-40.2 110.2-18.5 122.8 3 1.7 6.4 2.6 10.1 2.6 23.3 0 59.4-32.3 86.9-80 31.9-55.3 40.2-110.2 18.5-122.8-2.9-1.8-6.4-2.6-10.1-2.6z"/><g fill="#282828"><path d="M317.3 362.5c-2.9 4-4.5 8.2-4.5 12.5s1.6 8.5 4.5 12.5v-25zM324.2 394.7c1.5 1.2 3.2 2.5 5 3.6v-46.6c-1.8 1.2-3.5 2.4-5 3.6v39.4zM341.2 345.2c-1.7.8-3.4 1.6-5 2.4v54.7c1.6.8 3.3 1.6 5 2.4v-59.5zM353.1 340.6c-1.7.6-3.4 1.2-5 1.8v65.3c1.6.6 3.3 1.2 5 1.8v-68.9zM365.1 337c-1.7.4-3.4.9-5 1.4v73.2c1.6.5 3.3.9 5 1.4v-76zM377 334.3c-1.7.3-3.4.7-5 1v79.2c1.6.4 3.3.7 5 1v-81.2zM389 332.3c-1.7.2-3.4.5-5 .8v83.8c1.6.3 3.3.5 5 .8v-85.4zM401 330.9c-1.7.2-3.3.3-5 .5v87.1c1.7.2 3.3.4 5 .5v-88.1zM412.9 330c-1.7.1-3.3.2-5 .3v89.3c1.7.1 3.3.2 5 .3V330zM424.9 329.7c-1.7 0-3.3.1-5 .1v90.5c1.7 0 3.3.1 5 .1v-90.7zM431.8 420.3c1.7 0 3.3-.1 5-.1v-90.5c-1.7 0-3.3-.1-5-.1v90.7zM448.8 330.3c-1.7-.1-3.3-.2-5-.3v90c1.7-.1 3.3-.2 5-.3v-89.4zM460.8 331.4c-1.7-.2-3.3-.4-5-.5v88.2c1.7-.2 3.3-.3 5-.5v-87.2zM472.7 333.1c-1.6-.3-3.3-.5-5-.8v85.3c1.7-.2 3.4-.5 5-.8v-83.7zM484.7 335.4c-1.6-.4-3.3-.7-5-1v81.3c1.7-.3 3.4-.7 5-1v-79.3zM496.6 338.4c-1.6-.5-3.3-.9-5-1.4v76c1.7-.4 3.4-.9 5-1.4v-73.2zM508.6 342.4c-1.6-.6-3.3-1.2-5-1.8v68.9c1.7-.6 3.4-1.2 5-1.8v-65.3zM520.6 347.6c-1.6-.8-3.3-1.6-5-2.4v59.5c1.7-.8 3.4-1.6 5-2.4v-54.7zM532.5 355.3c-1.5-1.2-3.2-2.5-5-3.6v46.6c1.8-1.2 3.5-2.4 5-3.6v-39.4zM539.5 387.5c2.9-4 4.5-8.2 4.5-12.5s-1.6-8.5-4.5-12.5v25z"/></g><ellipse transform="rotate(-30 428.34 375.016)" fill="#282828" cx="428.4" cy="375" rx="45.4" ry="115.6"/><path fill="#FFF" d="M443.7 366.2c4.9 8.5 2 19.3-6.5 24.1-8.5 4.9-19.3 2-24.1-6.5-4.9-8.5-2-19.3 6.5-24.1 8.4-4.9 19.2-2 24.1 6.5z"/>
	</g>

	<g id="react3" class="icon">
		<path fill="#00D8FF" d="M443.7 366.2c4.9 8.5 2 19.3-6.5 24.1-8.5 4.9-19.3 2-24.1-6.5-4.9-8.5-2-19.3 6.5-24.1 8.4-4.9 19.2-2 24.1 6.5z"/><path fill="#00D8FF" d="M380.7 280.4c9.3 0 22.6 7.3 36.5 20 15.3 13.9 30.7 33.8 43.5 55.9 14.9 25.9 25 52.4 28.4 74.6 2.9 19.1.3 33.1-6.9 37.2-1.7 1-3.7 1.5-6.1 1.5-9.3 0-22.6-7.3-36.5-20-15.3-13.9-30.7-33.8-43.5-55.9-14.9-25.9-25-52.4-28.4-74.6-2.9-19.1-.3-33.1 6.9-37.2 1.7-1.1 3.7-1.5 6.1-1.5m0-8c-3.7 0-7.2.8-10.1 2.6-21.7 12.5-13.4 67.5 18.5 122.8 27.5 47.6 63.6 80 86.9 80 3.7 0 7.2-.8 10.1-2.6 21.7-12.5 13.4-67.5-18.5-122.8-27.5-47.7-63.5-80-86.9-80z"/><path fill="#282828" d="M428.4 337.6c29.9 0 57.9 4.5 78.8 12.7 18 7.1 28.8 16.3 28.8 24.6s-10.8 17.6-28.8 24.6c-20.9 8.2-48.9 12.7-78.8 12.7s-57.9-4.5-78.8-12.7c-18-7.1-28.8-16.3-28.8-24.6s10.8-17.6 28.8-24.6c20.9-8.1 48.9-12.7 78.8-12.7m0-8c-63.8 0-115.6 20.3-115.6 45.4s51.7 45.4 115.6 45.4c63.8 0 115.6-20.3 115.6-45.4s-51.8-45.4-115.6-45.4z"/><path fill="#282828" d="M476 280.4c2.4 0 4.4.5 6.1 1.5 7.2 4.2 9.8 18.1 6.9 37.2-3.3 22.2-13.4 48.7-28.4 74.6-28.5 49.3-62.5 76-80 76-2.4 0-4.4-.5-6.1-1.5-7.2-4.2-9.8-18.1-6.9-37.2 3.3-22.2 13.4-48.7 28.4-74.6 28.5-49.4 62.5-76 80-76m0-8c-23.3 0-59.4 32.3-86.9 80-31.9 55.3-40.2 110.2-18.5 122.8 3 1.7 6.4 2.6 10.1 2.6 23.3 0 59.4-32.3 86.9-80 31.9-55.3 40.2-110.2 18.5-122.8-2.9-1.8-6.4-2.6-10.1-2.6z"/><circle fill="#FFF" stroke="#282828" stroke-width="8" stroke-miterlimit="10" cx="450.9" cy="414.1" r="13.4"/><circle fill="#FFF" stroke="#282828" stroke-width="8" stroke-miterlimit="10" cx="405.8" cy="335.9" r="13.4"/><defs><path id="a" d="M392.4 357.3h162.2V522H392.4z"/></defs><clipPath id="b"><use xlink:href="#a" overflow="visible"/></clipPath><path clip-path="url(#b)" fill="#00D8FF" d="M380.7 280.4c9.3 0 22.6 7.3 36.5 20 15.3 13.9 30.7 33.8 43.5 55.9 14.9 25.9 25 52.4 28.4 74.6 2.9 19.1.3 33.1-6.9 37.2-1.7 1-3.7 1.5-6.1 1.5-9.3 0-22.6-7.3-36.5-20-15.3-13.9-30.7-33.8-43.5-55.9-14.9-25.9-25-52.4-28.4-74.6-2.9-19.1-.3-33.1 6.9-37.2 1.7-1.1 3.7-1.5 6.1-1.5m0-8c-3.7 0-7.2.8-10.1 2.6-21.7 12.5-13.4 67.5 18.5 122.8 27.5 47.6 63.6 80 86.9 80 3.7 0 7.2-.8 10.1-2.6 21.7-12.5 13.4-67.5-18.5-122.8-27.5-47.7-63.5-80-86.9-80z"/>
	</g>

	<g id="react4" class="icon">
		<path fill="#00D8FF" d="M428.4 337.6c29.9 0 57.9 4.5 78.8 12.7 18 7.1 28.8 16.3 28.8 24.6s-10.8 17.6-28.8 24.6c-20.9 8.2-48.9 12.7-78.8 12.7s-57.9-4.5-78.8-12.7c-18-7.1-28.8-16.3-28.8-24.6s10.8-17.6 28.8-24.6c20.9-8.1 48.9-12.7 78.8-12.7m0-8c-63.8 0-115.6 20.3-115.6 45.4s51.7 45.4 115.6 45.4c63.8 0 115.6-20.3 115.6-45.4s-51.8-45.4-115.6-45.4z"/><path fill="#00D8FF" d="M476 280.4c2.4 0 4.4.5 6.1 1.5 7.2 4.2 9.8 18.1 6.9 37.2-3.3 22.2-13.4 48.7-28.4 74.6-28.5 49.3-62.5 76-80 76-2.4 0-4.4-.5-6.1-1.5-7.2-4.2-9.8-18.1-6.9-37.2 3.3-22.2 13.4-48.7 28.4-74.6 28.5-49.4 62.5-76 80-76m0-8c-23.3 0-59.4 32.3-86.9 80-31.9 55.3-40.2 110.2-18.5 122.8 3 1.7 6.4 2.6 10.1 2.6 23.3 0 59.4-32.3 86.9-80 31.9-55.3 40.2-110.2 18.5-122.8-2.9-1.8-6.4-2.6-10.1-2.6z"/><path fill="#282828" d="M380.7 280.4c9.3 0 22.6 7.3 36.5 20 15.3 13.9 30.7 33.8 43.5 55.9 14.9 25.9 25 52.4 28.4 74.6 2.9 19.1.3 33.1-6.9 37.2-1.7 1-3.7 1.5-6.1 1.5-9.3 0-22.6-7.3-36.5-20-15.3-13.9-30.7-33.8-43.5-55.9-14.9-25.9-25-52.4-28.4-74.6-2.9-19.1-.3-33.1 6.9-37.2 1.7-1.1 3.7-1.5 6.1-1.5m0-8c-3.7 0-7.2.8-10.1 2.6-21.7 12.5-13.4 67.5 18.5 122.8 27.5 47.6 63.6 80 86.9 80 3.7 0 7.2-.8 10.1-2.6 21.7-12.5 13.4-67.5-18.5-122.8-27.5-47.7-63.5-80-86.9-80z"/><path fill="#FFF" stroke="#00D8FF" stroke-width="7" stroke-miterlimit="10" d="M411.5 365.3c3.5-6 9.9-9.7 16.9-9.7 7 0 13.4 3.7 16.9 9.7 3.5 6 3.5 13.5 0 19.5s-9.9 9.7-16.9 9.7c-7 0-13.4-3.7-16.9-9.7-3.5-6.1-3.5-13.5 0-19.5z"/>
	</g>

	<g id="react5" class="icon">
		<path fill="#00D8FF" d="M428.4 337.6c29.9 0 57.9 4.5 78.8 12.7 18 7.1 28.8 16.3 28.8 24.6s-10.8 17.6-28.8 24.6c-20.9 8.2-48.9 12.7-78.8 12.7s-57.9-4.5-78.8-12.7c-18-7.1-28.8-16.3-28.8-24.6s10.8-17.6 28.8-24.6c20.9-8.1 48.9-12.7 78.8-12.7m0-8c-63.8 0-115.6 20.3-115.6 45.4s51.7 45.4 115.6 45.4S544 400.1 544 375s-51.8-45.4-115.6-45.4z"/><ellipse transform="rotate(30 428.376 374.975)" fill="#00D8FF" cx="428.4" cy="375" rx="45.4" ry="115.6"/><g fill="#282828"><path d="M383.6 272.5c-4.9-.5-9.3.2-13.1 2.4s-6.6 5.6-8.6 10.1l21.7-12.5zM399 277.5c-1.9-1-3.8-1.8-5.6-2.5l-34.1 19.7c-.3 1.9-.5 4-.6 6.1l40.3-23.3zM410.6 284.6c-1.5-1.1-3.1-2.2-4.6-3.1l-47.4 27.4c.1 1.8.2 3.6.4 5.5l51.6-29.8zM420.6 292.6c-1.4-1.2-2.7-2.3-4-3.4L360 321.8c.3 1.7.6 3.5 1 5.2l59.6-34.4zM429.6 301.2c-1.2-1.3-2.5-2.5-3.7-3.6l-63.4 36.6c.4 1.7.9 3.3 1.3 5l65.8-38zM437.9 310.2c-1.1-1.3-2.3-2.6-3.4-3.8L365.9 346c.5 1.6 1 3.2 1.6 4.8l70.4-40.6zM445.6 319.6c-1.1-1.3-2.1-2.7-3.2-3.9l-72.6 41.9c.6 1.6 1.2 3.1 1.8 4.7l74-42.7zM452.8 329.2c-1-1.4-2-2.7-3-4.1l-75.4 43.6c.7 1.5 1.3 3.1 2 4.6l76.4-44.1zM459.6 339.1c-.9-1.4-1.8-2.8-2.8-4.2l-77.3 44.7c.7 1.5 1.5 3 2.2 4.5l77.9-45zM465.9 349.3c-.9-1.4-1.7-2.9-2.6-4.3l-78.4 45.2c.8 1.5 1.6 2.9 2.4 4.4l78.6-45.3zM471.8 359.7c-.8-1.5-1.6-2.9-2.4-4.4l-78.5 45.3c.9 1.4 1.7 2.9 2.6 4.3l78.3-45.2zM477.3 370.4c-.7-1.5-1.5-3-2.2-4.5l-77.9 45c.9 1.4 1.8 2.8 2.8 4.2l77.3-44.7zM482.3 381.3c-.7-1.5-1.3-3.1-2-4.6L404 420.8c1 1.4 2 2.7 3 4.1l75.3-43.6zM486.8 392.5c-.6-1.6-1.2-3.1-1.8-4.7l-73.9 42.7c1.1 1.3 2.1 2.7 3.2 3.9l72.5-41.9zM490.8 404c-.5-1.6-1-3.2-1.6-4.8l-70.4 40.7c1.1 1.3 2.3 2.6 3.4 3.8l68.6-39.7zM492.9 410.8l-65.8 38c1.2 1.3 2.5 2.5 3.7 3.6l63.4-36.6c-.4-1.6-.9-3.3-1.3-5zM496.8 428.2c-.3-1.7-.6-3.5-1-5.2l-59.6 34.4c1.4 1.2 2.7 2.3 4 3.4l56.6-32.6zM498.2 441.2c-.1-1.8-.2-3.6-.4-5.5l-51.6 29.8c1.5 1.1 3.1 2.2 4.6 3.1l47.4-27.4zM497.5 455.4c.3-1.9.5-4 .6-6.1l-40.4 23.3c1.9 1 3.8 1.8 5.6 2.5l34.2-19.7zM486.1 475.1c3.8-2.2 6.6-5.6 8.6-10.1L473 477.5c5 .5 9.4-.2 13.1-2.4z"/></g><path fill="#282828" d="M419.1 360c8.3-5.1 19.2-2.6 24.3 5.7 5.1 8.3 2.6 19.2-5.7 24.3-8.3 5.1-19.2 2.6-24.3-5.7-5.2-8.3-2.6-19.2 5.7-24.3z"/>
	</g>

	<g id="react6" class="icon">
		<g fill="#00D8FF"><path d="M317.3 362.5c-2.9 4-4.5 8.2-4.5 12.5s1.6 8.5 4.5 12.5v-25zM324.2 394.7c1.5 1.2 3.2 2.5 5 3.6v-46.6c-1.8 1.2-3.5 2.4-5 3.6v39.4zM341.2 345.2c-1.7.8-3.4 1.6-5 2.4v54.7c1.6.8 3.3 1.6 5 2.4v-59.5zM353.1 340.6c-1.7.6-3.4 1.2-5 1.8v65.3c1.6.6 3.3 1.2 5 1.8v-68.9zM365.1 337c-1.7.4-3.4.9-5 1.4v73.2c1.6.5 3.3.9 5 1.4v-76zM377 334.3c-1.7.3-3.4.7-5 1v79.2c1.6.4 3.3.7 5 1v-81.2zM389 332.3c-1.7.2-3.4.5-5 .8v83.8c1.6.3 3.3.5 5 .8v-85.4zM401 330.9c-1.7.2-3.3.3-5 .5v87.1c1.7.2 3.3.4 5 .5v-88.1zM412.9 330c-1.7.1-3.3.2-5 .3v89.3c1.7.1 3.3.2 5 .3V330zM424.9 329.7c-1.7 0-3.3.1-5 .1v90.5c1.7 0 3.3.1 5 .1v-90.7zM431.8 420.3c1.7 0 3.3-.1 5-.1v-90.5c-1.7 0-3.3-.1-5-.1v90.7zM448.8 330.3c-1.7-.1-3.3-.2-5-.3v90c1.7-.1 3.3-.2 5-.3v-89.4zM460.8 331.4c-1.7-.2-3.3-.4-5-.5v88.2c1.7-.2 3.3-.3 5-.5v-87.2zM472.7 333.1c-1.6-.3-3.3-.5-5-.8v85.3c1.7-.2 3.4-.5 5-.8v-83.7zM484.7 335.4c-1.6-.4-3.3-.7-5-1v81.3c1.7-.3 3.4-.7 5-1v-79.3zM496.6 338.4c-1.6-.5-3.3-.9-5-1.4v76c1.7-.4 3.4-.9 5-1.4v-73.2zM508.6 342.4c-1.6-.6-3.3-1.2-5-1.8v68.9c1.7-.6 3.4-1.2 5-1.8v-65.3zM520.6 347.6c-1.6-.8-3.3-1.6-5-2.4v59.5c1.7-.8 3.4-1.6 5-2.4v-54.7zM532.5 355.3c-1.5-1.2-3.2-2.5-5-3.6v46.6c1.8-1.2 3.5-2.4 5-3.6v-39.4zM539.5 387.5c2.9-4 4.5-8.2 4.5-12.5s-1.6-8.5-4.5-12.5v25z"/></g><ellipse transform="rotate(-150 428.37 375.003)" fill="#282828" cx="428.4" cy="375" rx="45.4" ry="115.6"/><path fill="#282828" d="M380.7 280.4c9.3 0 22.6 7.3 36.5 20 15.3 13.9 30.7 33.8 43.5 55.9 14.9 25.9 25 52.4 28.4 74.6 2.9 19.1.3 33.1-6.9 37.2-1.7 1-3.7 1.5-6.1 1.5-9.3 0-22.6-7.3-36.5-20-15.3-13.9-30.7-33.8-43.5-55.9-14.9-25.9-25-52.4-28.4-74.6-2.9-19.1-.3-33.1 6.9-37.2 1.7-1.1 3.7-1.5 6.1-1.5m0-8c-3.7 0-7.2.8-10.1 2.6-21.7 12.5-13.4 67.5 18.5 122.8 27.5 47.6 63.6 80 86.9 80 3.7 0 7.2-.8 10.1-2.6 21.7-12.5 13.4-67.5-18.5-122.8-27.5-47.7-63.5-80.1-86.9-80z"/><path fill="#00D8FF" d="M415.9 362.5c6.9-6.9 18.1-6.9 25 0 6.9 6.9 6.9 18.1 0 25-6.9 6.9-18.1 6.9-25 0-6.9-6.9-6.9-18.1 0-25z"/>
	</g>

	<use xlink:href="#react_text" width="435.6" height="137.2" x="-217.8" y="-68.6" transform="matrix(1 0 0 -1 809.564 373.068)" overflow="visible"/>
	<use xlink:href="#bandeira" width="28.3" height="28.3" x="-10.1" y="-14.1" transform="matrix(1 0 0 -1 767.8 431.525)" overflow="visible"/>

	<script>
		var icons = document.querySelectorAll('g.icon');
		var index = 0;
		function changeIcon() {
			var currentIcon = icons[index];

			setTimeout(function() {
				currentIcon.setAttribute('class', 'icon');
				index = icons[index+1] ? index+1 : 0;
				var nextIcon;
				
				var nextIcon = icons[index];
				nextIcon.setAttribute('class', 'icon active');
				changeIcon();
			}, 500);
		}
		changeIcon()
	</script>
</svg>